<svg width="180" height="90" viewBox="0 0 180 90" fill="none" xmlns="http://www.w3.org/2000/svg">
<g clip-path="url(#clip0)">
<path d="M31.27 0C37.62 8.4 43.06 17.05 47.18 26.49C47.08 26.56 46.98 26.62 46.88 26.69C42.32 20.39 37.77 14.1 33.1 7.65C19.43 19.72 8.41001 33.43 5.53136e-06 49.53C-0.169994 46.76 6.38001 31.83 12.34 22.69C17.73 14.43 23.78 6.74 31.27 0Z" fill="white"/>
<path d="M33.07 13.5C39.42 21.9 44.86 30.55 48.98 39.99C48.88 40.06 48.78 40.12 48.68 40.19C44.12 33.89 39.57 27.6 34.9 21.15C21.23 33.22 10.21 46.93 1.79999 63.03C1.62999 60.26 8.17999 45.33 14.14 36.19C19.53 27.93 25.58 20.24 33.07 13.5Z" fill="white"/>
<path d="M48.88 70.13C47.8 70.67 45.36 71.29 42.18 71.29C33.16 71.29 28.51 65.64 28.51 58.21C28.51 49.31 34.86 44.35 42.76 44.35C45.82 44.35 48.14 44.97 49.19 45.51L47.99 50.19C46.79 49.69 45.13 49.22 43.03 49.22C38.35 49.22 34.71 52.05 34.71 57.85C34.71 63.08 37.81 66.37 43.07 66.37C44.85 66.37 46.82 65.98 47.99 65.52L48.88 70.13Z" fill="white"/>
<path d="M69.44 61.19C69.44 68.12 64.52 71.29 59.45 71.29C53.91 71.29 49.66 67.65 49.66 61.54C49.66 55.42 53.69 51.51 59.76 51.51C65.57 51.51 69.44 55.5 69.44 61.19ZM55.74 61.38C55.74 64.63 57.09 67.07 59.61 67.07C61.89 67.07 63.36 64.79 63.36 61.38C63.36 58.55 62.28 55.69 59.61 55.69C56.78 55.69 55.74 58.6 55.74 61.38Z" fill="white"/>
<path d="M90.81 61.19C90.81 68.12 85.89 71.29 80.82 71.29C75.28 71.29 71.03 67.65 71.03 61.54C71.03 55.42 75.06 51.51 81.13 51.51C86.94 51.51 90.81 55.5 90.81 61.19ZM77.11 61.38C77.11 64.63 78.46 67.07 80.98 67.07C83.26 67.07 84.73 64.79 84.73 61.38C84.73 58.55 83.65 55.69 80.98 55.69C78.15 55.69 77.11 58.6 77.11 61.38Z" fill="white"/>
<path d="M93.37 57.98C93.37 55.62 93.29 53.6 93.22 51.94H98.18L98.45 54.49H98.57C99.38 53.29 101.05 51.51 104.3 51.51C106.74 51.51 108.67 52.75 109.49 54.72H109.57C110.27 53.71 111.12 52.98 112.01 52.44C113.06 51.82 114.22 51.51 115.61 51.51C119.25 51.51 122 54.06 122 59.72V70.87H116.27V60.57C116.27 57.82 115.38 56.23 113.48 56.23C112.12 56.23 111.16 57.16 110.77 58.28C110.61 58.71 110.54 59.32 110.54 59.79V70.86H104.81V60.26C104.81 57.86 103.96 56.23 102.1 56.23C100.59 56.23 99.7 57.39 99.35 58.36C99.16 58.82 99.12 59.37 99.12 59.83V70.86H93.39V57.98H93.37Z" fill="white"/>
<path d="M130.11 63.28C130.3 65.72 132.7 66.88 135.45 66.88C137.46 66.88 139.09 66.61 140.68 66.11L141.45 70.1C139.51 70.87 137.15 71.3 134.6 71.3C128.17 71.3 124.5 67.55 124.5 61.62C124.5 56.82 127.48 51.52 134.06 51.52C140.18 51.52 142.5 56.28 142.5 60.97C142.5 61.98 142.38 62.87 142.31 63.29H130.11V63.28ZM137.04 59.26C137.04 57.83 136.42 55.43 133.71 55.43C131.23 55.43 130.23 57.68 130.07 59.26H137.04Z" fill="white"/>
<path d="M149.08 51.94L151.64 60.73C152.1 62.32 152.45 63.83 152.72 65.34H152.84C153.15 63.79 153.46 62.36 153.88 60.73L156.32 51.94H162.51L155.46 70.87H149.58L142.69 51.94H149.08Z" fill="white"/>
<path d="M179.66 66.26C179.66 68.08 179.74 69.82 179.93 70.87H174.63L174.28 68.97H174.16C172.92 70.48 170.99 71.29 168.74 71.29C164.91 71.29 162.62 68.5 162.62 65.48C162.62 60.56 167.03 58.2 173.73 58.24V57.97C173.73 56.96 173.19 55.53 170.28 55.53C168.34 55.53 166.29 56.19 165.05 56.96L163.97 53.17C165.29 52.43 167.88 51.51 171.33 51.51C177.64 51.51 179.65 55.23 179.65 59.68V66.26H179.66ZM173.93 61.93C170.83 61.89 168.43 62.63 168.43 64.91C168.43 66.42 169.44 67.16 170.75 67.16C172.22 67.16 173.42 66.19 173.81 64.99C173.89 64.68 173.93 64.33 173.93 63.98V61.93Z" fill="white"/>
<path d="M53.09 89.4V76.86H54.86L58.88 83.2C59.81 84.67 60.54 85.99 61.13 87.27L61.17 87.25C61.02 85.58 60.98 84.05 60.98 82.1V76.85H62.51V89.4H60.87L56.89 83.04C56.02 81.64 55.18 80.21 54.55 78.85L54.49 78.87C54.58 80.45 54.62 81.96 54.62 84.04V89.4H53.09Z" fill="white"/>
<path d="M72.9 84.82C72.9 88.15 70.59 89.6 68.42 89.6C65.98 89.6 64.1 87.81 64.1 84.97C64.1 81.96 66.07 80.19 68.56 80.19C71.15 80.19 72.9 82.07 72.9 84.82ZM65.76 84.92C65.76 86.89 66.89 88.38 68.49 88.38C70.05 88.38 71.22 86.91 71.22 84.88C71.22 83.35 70.46 81.42 68.52 81.42C66.58 81.42 65.76 83.21 65.76 84.92Z" fill="white"/>
<path d="M74.22 87.73C74.7 88.05 75.56 88.38 76.38 88.38C77.57 88.38 78.13 87.79 78.13 87.04C78.13 86.26 77.67 85.83 76.46 85.38C74.84 84.8 74.08 83.91 74.08 82.83C74.08 81.38 75.25 80.19 77.19 80.19C78.1 80.19 78.9 80.45 79.4 80.75L78.99 81.94C78.64 81.72 77.99 81.42 77.15 81.42C76.18 81.42 75.64 81.98 75.64 82.65C75.64 83.39 76.18 83.73 77.35 84.18C78.91 84.77 79.71 85.56 79.71 86.9C79.71 88.48 78.48 89.6 76.34 89.6C75.35 89.6 74.44 89.36 73.81 88.99L74.22 87.73Z" fill="white"/>
<path d="M84.88 89.4V81.64H83.62V80.4H84.88V79.97C84.88 78.71 85.16 77.55 85.92 76.83C86.53 76.24 87.35 75.99 88.12 75.99C88.7 75.99 89.2 76.12 89.52 76.25L89.3 77.51C89.06 77.4 88.72 77.31 88.26 77.31C86.87 77.31 86.51 78.54 86.51 79.91V80.39H88.69V81.64H86.5V89.4H84.88Z" fill="white"/>
<path d="M94.61 89.4L94.48 88.27H94.42C93.92 88.98 92.95 89.61 91.67 89.61C89.85 89.61 88.92 88.33 88.92 87.02C88.92 84.84 90.85 83.65 94.33 83.67V83.48C94.33 82.74 94.13 81.4 92.28 81.4C91.44 81.4 90.57 81.66 89.94 82.07L89.57 80.99C90.31 80.51 91.39 80.19 92.53 80.19C95.28 80.19 95.95 82.07 95.95 83.87V87.24C95.95 88.02 95.99 88.78 96.1 89.4H94.61ZM94.36 84.81C92.57 84.77 90.55 85.09 90.55 86.84C90.55 87.9 91.26 88.4 92.09 88.4C93.26 88.4 94.01 87.66 94.27 86.89C94.33 86.72 94.36 86.54 94.36 86.37V84.81Z" fill="white"/>
<path d="M104.48 89.07C104.05 89.29 103.1 89.59 101.89 89.59C99.17 89.59 97.41 87.75 97.41 85C97.41 82.23 99.31 80.22 102.25 80.22C103.22 80.22 104.07 80.46 104.52 80.68L104.15 81.94C103.76 81.72 103.15 81.51 102.25 81.51C100.19 81.51 99.07 83.04 99.07 84.91C99.07 86.99 100.41 88.28 102.2 88.28C103.13 88.28 103.74 88.04 104.21 87.83L104.48 89.07Z" fill="white"/>
<path d="M107.7 77.87C107.72 78.43 107.31 78.87 106.66 78.87C106.08 78.87 105.67 78.42 105.67 77.87C105.67 77.29 106.1 76.85 106.69 76.85C107.31 76.85 107.7 77.29 107.7 77.87ZM105.88 89.4V80.4H107.52V89.4H105.88Z" fill="white"/>
<path d="M109.71 76.19H111.35V89.4H109.71V76.19Z" fill="white"/>
<path d="M115.4 77.87C115.42 78.43 115.01 78.87 114.36 78.87C113.78 78.87 113.37 78.42 113.37 77.87C113.37 77.29 113.8 76.85 114.39 76.85C115.01 76.85 115.4 77.29 115.4 77.87ZM113.58 89.4V80.4H115.22V89.4H113.58Z" fill="white"/>
<path d="M119.38 77.81V80.39H121.72V81.64H119.38V86.5C119.38 87.62 119.7 88.25 120.61 88.25C121.04 88.25 121.35 88.19 121.56 88.14L121.63 89.37C121.31 89.5 120.81 89.59 120.18 89.59C119.42 89.59 118.8 89.35 118.41 88.9C117.95 88.42 117.78 87.62 117.78 86.56V81.65H116.39V80.4H117.78V78.24L119.38 77.81Z" fill="white"/>
<path d="M128.03 89.4L127.9 88.27H127.84C127.34 88.98 126.37 89.61 125.09 89.61C123.27 89.61 122.34 88.33 122.34 87.02C122.34 84.84 124.27 83.65 127.75 83.67V83.48C127.75 82.74 127.55 81.4 125.7 81.4C124.86 81.4 123.99 81.66 123.36 82.07L122.99 80.99C123.73 80.51 124.81 80.19 125.95 80.19C128.7 80.19 129.37 82.07 129.37 83.87V87.24C129.37 88.02 129.41 88.78 129.52 89.4H128.03ZM127.79 84.81C126 84.77 123.98 85.09 123.98 86.84C123.98 87.9 124.69 88.4 125.52 88.4C126.69 88.4 127.44 87.66 127.7 86.89C127.76 86.72 127.79 86.54 127.79 86.37V84.81Z" fill="white"/>
<path d="M134.92 76.19H136.56V89.4H134.92V76.19Z" fill="white"/>
<path d="M143.77 89.4L143.64 88.27H143.58C143.08 88.98 142.11 89.61 140.83 89.61C139.01 89.61 138.08 88.33 138.08 87.02C138.08 84.84 140.01 83.65 143.49 83.67V83.48C143.49 82.74 143.29 81.4 141.44 81.4C140.6 81.4 139.73 81.66 139.1 82.07L138.73 80.99C139.47 80.51 140.55 80.19 141.69 80.19C144.44 80.19 145.11 82.07 145.11 83.87V87.24C145.11 88.02 145.15 88.78 145.26 89.4H143.77ZM143.53 84.81C141.74 84.77 139.72 85.09 139.72 86.84C139.72 87.9 140.43 88.4 141.26 88.4C142.43 88.4 143.18 87.66 143.44 86.89C143.5 86.72 143.53 86.54 143.53 86.37V84.81Z" fill="white"/>
<path d="M151.29 80.4L153.06 85.46C153.36 86.28 153.6 87.02 153.79 87.77H153.85C154.06 87.03 154.32 86.28 154.61 85.46L156.36 80.4H158.07L154.54 89.4H152.98L149.56 80.4H151.29Z" fill="white"/>
<path d="M160.9 77.87C160.92 78.43 160.51 78.87 159.86 78.87C159.28 78.87 158.87 78.42 158.87 77.87C158.87 77.29 159.3 76.85 159.89 76.85C160.51 76.85 160.9 77.29 160.9 77.87ZM159.08 89.4V80.4H160.72V89.4H159.08Z" fill="white"/>
<path d="M170.69 76.19V87.07C170.69 87.87 170.71 88.78 170.76 89.4H169.29L169.22 87.84H169.18C168.68 88.84 167.58 89.61 166.11 89.61C163.93 89.61 162.26 87.77 162.26 85.03C162.24 82.03 164.1 80.19 166.3 80.19C167.68 80.19 168.61 80.84 169.02 81.57H169.06V76.19H170.69ZM169.05 84.06C169.05 83.85 169.03 83.58 168.98 83.37C168.74 82.33 167.85 81.47 166.62 81.47C164.93 81.47 163.92 82.96 163.92 84.95C163.92 86.77 164.81 88.28 166.58 88.28C167.68 88.28 168.68 87.55 168.98 86.33C169.04 86.11 169.05 85.88 169.05 85.62V84.06Z" fill="white"/>
<path d="M177.87 89.4L177.74 88.27H177.68C177.18 88.98 176.21 89.61 174.93 89.61C173.11 89.61 172.18 88.33 172.18 87.02C172.18 84.84 174.11 83.65 177.59 83.67V83.48C177.59 82.74 177.39 81.4 175.54 81.4C174.7 81.4 173.83 81.66 173.2 82.07L172.83 80.99C173.57 80.51 174.65 80.19 175.79 80.19C178.54 80.19 179.21 82.07 179.21 83.87V87.24C179.21 88.02 179.25 88.78 179.36 89.4H177.87ZM177.63 84.81C175.84 84.77 173.82 85.09 173.82 86.84C173.82 87.9 174.53 88.4 175.36 88.4C176.53 88.4 177.28 87.66 177.54 86.89C177.6 86.72 177.63 86.54 177.63 86.37V84.81Z" fill="white"/>
</g>
<defs>
<clipPath id="clip0">
<rect width="179.93" height="89.61" fill="white"/>
</clipPath>
</defs>
</svg>
